<?xml version="1.0" encoding="UTF-8"?> <!-- Generator: Adobe Illustrator 19.0.0, SVG Export Plug-In . SVG Version: 6.00 Build 0) --> <svg xmlns="http://www.w3.org/2000/svg" xmlns:xlink="http://www.w3.org/1999/xlink" id="Capa_1" x="0px" y="0px" viewBox="0 0 480.606 480.606" style="enable-background:new 0 0 480.606 480.606;" xml:space="preserve"> <g> <path d="M392.803,82.043L344.617,0H135.989L87.803,82.043V305h305V82.043z M153.161,30h174.284l24.152,41.122H129.009L153.161,30z M261.352,275h-42.097v-89.765h42.097V275z M291.352,275V155.235H189.255V275h-71.452V101.122h245V275H291.352z"></path> <polygon points="388.021,339.394 366.808,360.606 401.201,395 79.406,395 113.799,360.606 92.586,339.394 21.979,410 92.586,480.606 113.799,459.394 79.406,425 401.201,425 366.808,459.394 388.021,480.606 458.627,410 "></polygon> </g> <g> </g> <g> </g> <g> </g> <g> </g> <g> </g> <g> </g> <g> </g> <g> </g> <g> </g> <g> </g> <g> </g> <g> </g> <g> </g> <g> </g> <g> </g> </svg> 