<?xml version="1.0" encoding="UTF-8"?> <!-- Generator: Adobe Illustrator 19.0.0, SVG Export Plug-In . SVG Version: 6.00 Build 0) --> <svg xmlns="http://www.w3.org/2000/svg" xmlns:xlink="http://www.w3.org/1999/xlink" id="Layer_1" x="0px" y="0px" viewBox="0 0 490.667 490.667" style="enable-background:new 0 0 490.667 490.667;" xml:space="preserve"> <g> <g> <g> <path d="M245.333,0C110.059,0,0,110.059,0,245.333s110.059,245.333,245.333,245.333s245.333-110.059,245.333-245.333 S380.608,0,245.333,0z M245.333,469.333c-123.52,0-224-100.48-224-224c0-57.92,22.272-110.613,58.496-150.4L176.896,192h-59.563 c-5.888,0-10.667,4.779-10.667,10.667s4.779,10.667,10.667,10.667h32V352c0,5.888,4.779,10.667,10.667,10.667 s10.667-4.779,10.667-10.667v-61.12c14.763,3.264,39.488,7.787,64,7.787c21.227,0,34.112-2.923,41.984-6.912l22.016,22.016V352 c0,5.888,4.779,10.667,10.667,10.667S320,357.888,320,352v-16.896l75.733,75.733 C355.947,447.061,303.253,469.333,245.333,469.333z M198.229,213.333l61.76,61.76c-5.12,1.173-13.077,2.219-25.323,2.219 c-25.109,0-51.349-5.376-64-8.341v-55.637H198.229z M410.816,395.755l-93.867-93.867c-0.043-0.043-0.043-0.085-0.085-0.128 L210.197,195.093c-0.043-0.043-0.085-0.043-0.128-0.085l-115.2-115.2c39.851-36.181,92.523-58.475,150.464-58.475 c123.52,0,224,100.48,224,224C469.333,303.275,447.04,355.947,410.816,395.755z"></path> <path d="M389.461,172.181l-48.149-28.885v-25.963c0-4.949-3.392-9.237-8.213-10.389c-4.779-1.152-9.771,1.173-11.989,5.611 l-30.869,61.76c-5.227,10.453-15.851,17.173-27.733,17.515c-5.888,0.192-10.517,5.099-10.347,10.987 c0.192,5.888,6.016,10.603,10.987,10.347c19.733-0.576,37.44-11.819,46.187-29.312l13.589-27.179 c0.64,0.704,1.387,1.323,2.24,1.813l45.995,27.584l-4.587,13.781l-21.867-7.296c-4.331-1.451-9.152,0.043-11.904,3.712 l-23.467,31.275c-4.181,5.568-7.125,12.309-8.939,20.629c-1.259,5.76,2.368,11.456,8.128,12.715 c0.768,0.171,1.536,0.256,2.304,0.256c4.885,0,9.301-3.392,10.389-8.384c1.173-5.333,2.816-9.28,5.163-12.416l18.859-25.131 l24.704,8.235c5.611,1.899,11.627-1.152,13.483-6.741l10.667-32C395.669,179.968,393.749,174.763,389.461,172.181z"></path> </g> </g> </g> <g> </g> <g> </g> <g> </g> <g> </g> <g> </g> <g> </g> <g> </g> <g> </g> <g> </g> <g> </g> <g> </g> <g> </g> <g> </g> <g> </g> <g> </g> </svg> 