<?xml version="1.0" encoding="UTF-8"?> <!-- Generator: Adobe Illustrator 19.0.0, SVG Export Plug-In . SVG Version: 6.00 Build 0) --> <svg xmlns="http://www.w3.org/2000/svg" xmlns:xlink="http://www.w3.org/1999/xlink" id="Capa_1" x="0px" y="0px" viewBox="0 0 512 512" style="enable-background:new 0 0 512 512;" xml:space="preserve"> <g> <g> <path d="M405.406,202.853c-6.017-7.553-6.025-18.111-0.021-25.675l7.874-9.92c3.434-4.326,2.71-10.615-1.616-14.048 c-4.325-3.433-10.615-2.711-14.048,1.616l-7.875,9.92c-11.824,14.897-11.806,35.692,0.042,50.568l7.771,9.757 c1.975,2.479,4.888,3.771,7.828,3.771c2.184,0,4.383-0.712,6.224-2.178c4.32-3.441,5.033-9.731,1.592-14.051L405.406,202.853z"></path> </g> </g> <g> <g> <path d="M484.265,173.624l-7.771-9.757c-6.017-7.554-6.026-18.112-0.022-25.675l7.874-9.92c3.434-4.326,2.71-10.615-1.615-14.049 c-4.325-3.432-10.614-2.71-14.049,1.615l-7.874,9.92c-11.824,14.897-11.806,35.692,0.043,50.569l7.771,9.758 c6.017,7.553,6.025,18.112,0.022,25.676c-3.434,4.326-2.71,10.615,1.616,14.048c1.839,1.459,4.032,2.168,6.21,2.168 c2.946,0,5.865-1.296,7.839-3.784C496.132,209.297,496.114,188.502,484.265,173.624z"></path> </g> </g> <g> <g> <path d="M51.15,212.612l-7.772-9.759c-6.017-7.553-6.025-18.111-0.021-25.675l7.875-9.92c3.434-4.326,2.71-10.615-1.616-14.048 c-4.326-3.434-10.616-2.71-14.048,1.616l-7.874,9.92c-11.824,14.897-11.807,35.691,0.042,50.568l7.771,9.758 c6.017,7.554,6.026,18.112,0.022,25.675c-3.434,4.326-2.71,10.615,1.616,14.048c1.838,1.46,4.032,2.168,6.21,2.168 c2.946,0,5.865-1.296,7.839-3.783C63.016,248.282,62.998,227.488,51.15,212.612z"></path> </g> </g> <g> <g> <path d="M120.707,114.226c-4.324-3.437-10.613-2.717-14.05,1.605l-0.288,0.362c-3.436,4.325-2.717,10.614,1.606,14.051 c1.84,1.462,4.036,2.172,6.216,2.172c2.944,0,5.86-1.294,7.833-3.778l0.288-0.362C125.749,123.952,125.03,117.663,120.707,114.226 z"></path> </g> </g> <g> <g> <path d="M122.236,173.625l-7.771-9.757c-1.79-2.248-3.069-4.788-3.802-7.549c-1.417-5.338-6.891-8.518-12.229-7.101 c-5.338,1.417-8.516,6.893-7.101,12.229c1.446,5.451,3.966,10.456,7.489,14.88l7.771,9.757c6.017,7.555,6.026,18.112,0.022,25.675 c-3.434,4.326-2.71,10.615,1.615,14.049c1.839,1.459,4.032,2.168,6.211,2.168c2.946,0,5.865-1.296,7.839-3.783 C134.103,209.297,134.086,188.502,122.236,173.625z"></path> </g> </g> <g> <g> <path d="M474.791,292.017l-95.691-0.001c-3.645-24.344-20.388-45.324-43.952-53.935l-44.423-16.234 c-0.701-0.261-0.957-0.648-0.977-0.681v-18.064l17.887-10.256c0.183-0.104,0.361-0.214,0.537-0.33 c9.458-6.247,15.666-17.297,16.603-29.56c0.02-0.253,0.029-0.508,0.029-0.762v-22.588c3.329-1.346,6.447-3.367,9.141-6.062 l2.871-2.871c15.389-15.389,15.389-40.429,0-55.818l-43.619-43.619c-3.863-13.666-14.068-24.393-27.647-28.886 c-16.558-5.479-34.503-1.221-46.834,11.11l-39.732,39.733c-11.671,11.67-18.099,27.187-18.099,43.692 c0,16.505,6.428,32.022,18.098,43.692l7.859,7.859v13.757c0,0.254,0.01,0.509,0.029,0.762c0.941,12.309,7.109,23.359,16.499,29.56 c0.179,0.118,0.361,0.23,0.547,0.337l17.967,10.271l0.006,17.992c-0.026,0.082-0.283,0.469-0.922,0.708l-44.475,16.256 c-23.562,8.612-40.304,29.591-43.949,53.934l-95.724-0.001c-2.652,0-5.196,1.054-7.07,2.929c-1.875,1.876-2.929,4.419-2.929,7.071 V502c0,5.522,4.477,9.999,9.999,9.999h437.971c5.523,0,9.999-4.478,9.999-9.999V302.017 C484.79,296.495,480.313,292.017,474.791,292.017z M291.976,58.301l30.697,30.697c7.592,7.591,7.592,19.944,0.001,27.535 l-2.871,2.871c-2.972,2.973-7.807,2.973-10.78,0l-36.507-36.507l9.812-9.812C286.63,68.783,289.864,63.741,291.976,58.301z M196.909,130.222l-3.786-3.787c-7.893-7.893-12.24-18.388-12.24-29.551c-0.001-11.161,4.347-21.656,12.24-29.549l39.733-39.733 c4.948-4.949,11.499-7.591,18.23-7.591c2.729,0,5.487,0.435,8.18,1.326c7.534,2.493,13.126,8.591,14.958,16.313 c1.832,7.721-0.425,15.682-6.037,21.294L196.909,130.222z M214.159,175.672c-4.005-2.769-6.782-8.041-7.32-13.894v-13.204 l51.536-51.536l36.506,36.507c2.904,2.904,6.302,5.018,9.923,6.356v21.876c-0.536,5.813-3.355,11.087-7.43,13.899l-35.069,20.109 c-0.183,0.104-0.361,0.214-0.537,0.33c-3.78,2.497-8.115,2.496-11.895,0c-0.179-0.118-0.361-0.23-0.548-0.337L214.159,175.672z M99.815,492.001H46.819v-33.998h52.996V492.001z M99.815,438.005H46.819v-65.996h52.996V438.005z M99.815,352.011H46.819v-39.997 h52.996V352.011z M172.811,492.001h-52.996v-33.998h52.996V492.001z M172.811,438.005h-52.996v-65.996h52.996V438.005z M172.811,352.01h-52.996v-39.997l52.996,0.001V352.01z M245.806,492.001h-52.997v-33.998h52.997V492.001z M245.806,438.005 h-52.997v-65.996h52.997V438.005z M245.806,352.01h-52.997v-39.996h52.997V352.01z M318.801,492.001h-52.996v-33.998h52.996 V492.001z M318.801,438.005h-52.996v-65.996h52.996V438.005z M318.801,352.01h-52.996v-39.996l52.996,0.001V352.01z M328.799,276.349c-5.523,0-9.999,4.478-9.999,9.999v5.669l-125.992-0.001v-5.668c0-5.522-4.477-9.999-9.999-9.999 c-5.523,0-9.999,4.478-9.999,9.999v5.668h-19.953c3.416-15.928,14.817-29.42,30.501-35.153l44.538-16.279 c8.496-3.171,13.985-10.792,13.985-19.418v-6.612c4.423,2.276,9.178,3.433,13.941,3.433c4.756,0,9.507-1.155,13.926-3.426v6.605 c0,8.627,5.491,16.25,14.049,19.442l44.485,16.257c15.686,5.732,27.087,19.224,30.502,35.152h-19.986v-5.669 C338.799,280.827,334.322,276.349,328.799,276.349z M391.796,492.001H338.8v-33.998h52.997V492.001z M391.796,438.005H338.8 v-65.996h52.997V438.005z M391.796,352.011H338.8v-39.995h52.997V352.011z M464.791,492.001h-52.996v-33.998h52.996V492.001z M464.791,438.005h-52.996v-65.996h52.996V438.005z M464.791,352.01h-52.996v-39.994h52.996V352.01z"></path> </g> </g> <g> <g> <path d="M445.362,398.027c-1.86-1.859-4.44-2.93-7.07-2.93s-5.21,1.07-7.07,2.93s-2.93,4.44-2.93,7.07s1.07,5.21,2.93,7.07 c1.86,1.859,4.44,2.93,7.07,2.93s5.21-1.07,7.07-2.93s2.93-4.44,2.93-7.07S447.222,399.887,445.362,398.027z"></path> </g> </g> <g> <g> <path d="M299.372,398.027c-1.86-1.859-4.44-2.93-7.07-2.93s-5.21,1.07-7.07,2.93s-2.93,4.44-2.93,7.07s1.07,5.21,2.93,7.07 c1.86,1.859,4.44,2.93,7.07,2.93s5.21-1.07,7.07-2.93s2.93-4.44,2.93-7.07S301.232,399.887,299.372,398.027z"></path> </g> </g> <g> <g> <path d="M153.382,398.027c-1.86-1.859-4.44-2.93-7.07-2.93s-5.21,1.07-7.07,2.93c-1.86,1.86-2.93,4.44-2.93,7.07 s1.07,5.21,2.93,7.07c1.86,1.859,4.44,2.93,7.07,2.93s5.21-1.07,7.07-2.93s2.93-4.44,2.93-7.07S155.241,399.887,153.382,398.027z"></path> </g> </g> <g> <g> <path d="M411.898,248.772c-4.324-3.437-10.613-2.717-14.05,1.605l-0.288,0.362c-3.436,4.325-2.717,10.615,1.606,14.051 c1.84,1.462,4.036,2.172,6.216,2.172c2.944,0,5.86-1.294,7.833-3.778l0.288-0.362C416.939,258.499,416.22,252.209,411.898,248.772 z"></path> </g> </g> <g> </g> <g> </g> <g> </g> <g> </g> <g> </g> <g> </g> <g> </g> <g> </g> <g> </g> <g> </g> <g> </g> <g> </g> <g> </g> <g> </g> <g> </g> </svg> 