<?xml version="1.0" encoding="UTF-8"?> <!-- Generator: Adobe Illustrator 21.0.0, SVG Export Plug-In . SVG Version: 6.00 Build 0) --> <svg xmlns="http://www.w3.org/2000/svg" xmlns:xlink="http://www.w3.org/1999/xlink" id="Capa_1" x="0px" y="0px" viewBox="0 0 2622.1 512" style="enable-background:new 0 0 2622.1 512;" xml:space="preserve"> <style type="text/css"> .st0{fill:#FFFFFF;} </style> <g> <g id="star-rate"> <polygon class="st0" points="256,386.1 413.9,501.3 354.1,313.6 512,202.7 320,202.7 256,10.7 192,202.7 0,202.7 157.9,313.6 98.1,501.3 "></polygon> </g> </g> <g> <g id="star-rate_1_"> <polygon class="st0" points="1310.1,386.1 1467.9,501.3 1408.2,313.6 1566.1,202.7 1374.1,202.7 1310.1,10.7 1246.1,202.7 1054.1,202.7 1211.9,313.6 1152.2,501.3 "></polygon> </g> </g> <g> <g id="star-rate_2_"> <polygon class="st0" points="783,386.1 940.9,501.3 881.2,313.6 1039,202.7 847,202.7 783,10.7 719,202.7 527,202.7 684.9,313.6 625.2,501.3 "></polygon> </g> </g> <g> <g id="star-rate_3_"> <polygon class="st0" points="1838,386.1 1995.8,501.3 1936.1,313.6 2094,202.7 1902,202.7 1838,10.7 1774,202.7 1582,202.7 1739.8,313.6 1680.1,501.3 "></polygon> </g> </g> <g> <g id="star-rate_4_"> <polygon class="st0" points="2366.1,386.1 2524,501.3 2464.2,313.6 2622.1,202.7 2430.1,202.7 2366.1,10.7 2302.1,202.7 2110.1,202.7 2268,313.6 2208.2,501.3 "></polygon> </g> </g> </svg> 