<?xml version="1.0" encoding="UTF-8"?> <svg xmlns="http://www.w3.org/2000/svg" xmlns:xlink="http://www.w3.org/1999/xlink" height="300px" id="Layer_1" viewBox="0 0 300 300" width="300px" xml:space="preserve"> <path d=" M249,187.627c0-2.003-1.624-3.627-3.627-3.627H52.627c-2.003,0-3.627,1.624-3.627,3.627v33.746c0,2.003,1.624,3.627,3.627,3.627 h192.746c2.003,0,3.627-1.624,3.627-3.627V187.627z" fill="none" stroke="#000000" stroke-linecap="round" stroke-linejoin="round" stroke-miterlimit="10" stroke-width="6"></path> <path d=" M72.5,164c-12.702,0-23.5,9.797-23.5,22.5v34.373c0,2.003,2.124,4.127,4.127,4.127h192.746c2.003,0,3.127-2.124,3.127-4.127V186.5 c0-12.703-9.798-22.5-22.5-22.5H72.5z" fill="none" stroke="#000000" stroke-linecap="round" stroke-linejoin="round" stroke-miterlimit="10" stroke-width="6"></path> <circle cx="226.75" cy="203.629" r="6.25"></circle> <circle cx="205.321" cy="203.629" r="6.25"></circle> <circle cx="183.893" cy="203.629" r="6.25"></circle> <line fill="none" stroke="#000000" stroke-linecap="round" stroke-linejoin="round" stroke-miterlimit="10" stroke-width="6" x1="64.5" x2="75.47" y1="114" y2="152.847"></line> </svg> 